<?xml version="1.0" encoding="UTF-8" standalone="no"?>
<!-- Created with Inkscape (http://www.inkscape.org/) -->

<svg
   xmlns:dc="http://purl.org/dc/elements/1.1/"
   xmlns:cc="http://creativecommons.org/ns#"
   xmlns:rdf="http://www.w3.org/1999/02/22-rdf-syntax-ns#"
   xmlns:svg="http://www.w3.org/2000/svg"
   xmlns="http://www.w3.org/2000/svg"
   xmlns:sodipodi="http://sodipodi.sourceforge.net/DTD/sodipodi-0.dtd"
   xmlns:inkscape="http://www.inkscape.org/namespaces/inkscape"
   width="48"
   height="48"
   viewBox="0 0 12.7 12.7"
   version="1.1"
   id="svg8"
   inkscape:version="0.92.4 (5da689c313, 2019-01-14)"
   sodipodi:docname="favicon.svg">
  <defs
     id="defs2" />
  <sodipodi:namedview
     id="base"
     pagecolor="#ffffff"
     bordercolor="#666666"
     borderopacity="1.0"
     inkscape:pageopacity="0.0"
     inkscape:pageshadow="2"
     inkscape:zoom="11.453376"
     inkscape:cx="22.662268"
     inkscape:cy="25.082473"
     inkscape:document-units="mm"
     inkscape:current-layer="layer1"
     showgrid="false"
     units="px"
     inkscape:window-width="1920"
     inkscape:window-height="1017"
     inkscape:window-x="-8"
     inkscape:window-y="-8"
     inkscape:window-maximized="1">
    <inkscape:grid
       type="xygrid"
       id="grid4770" />
  </sodipodi:namedview>
  <metadata
     id="metadata5">
    <rdf:RDF>
      <cc:Work
         rdf:about="">
        <dc:format>image/svg+xml</dc:format>
        <dc:type
           rdf:resource="http://purl.org/dc/dcmitype/StillImage" />
        <dc:title></dc:title>
      </cc:Work>
    </rdf:RDF>
  </metadata>
  <g
     inkscape:label="Layer 1"
     inkscape:groupmode="layer"
     id="layer1"
     transform="translate(0,-284.3)">
    <path
       style="fill:#00467c;fill-opacity:1;stroke:none;stroke-width:0.22980078px;stroke-linecap:butt;stroke-linejoin:miter;stroke-opacity:1"
       d="m 6.3626332,284.78885 a 1.7308605,1.7308605 0 0 0 -1.7309509,1.73095 1.7308605,1.7308605 0 0 0 0.7427899,1.41993 c -1.0275677,0.15498 -2.0755537,0.57431 -3.1480936,1.30864 H 10.499443 C 9.4584585,288.58393 8.4000265,288.13752 7.3213049,287.9592 a 1.7308605,1.7308605 0 0 0 0.7722791,-1.4394 1.7308605,1.7308605 0 0 0 -1.7309508,-1.73095 z m 4.1368098,4.45952 -4.1368098,7.16417 c 1.0959149,-0.5693 2.0114153,-1.26203 2.7052018,-2.10708 a 1.7308605,1.7308605 0 0 0 0.8607459,1.38822 1.7308605,1.7308605 0 0 0 2.3641301,-0.63374 1.7308605,1.7308605 0 0 0 -0.63318,-2.36468 1.7308605,1.7308605 0 0 0 -1.60131,-0.0668 c 0.379562,-0.96739 0.54091,-2.08409 0.441222,-3.38011 z m -4.1368098,7.16417 -4.1362546,-7.16417 c -0.099688,1.29602 0.06166,2.41272 0.4412227,3.38011 a 1.7308605,1.7308605 0 0 0 -1.6013104,0.0668 1.7308605,1.7308605 0 0 0 -0.63317961,2.36467 1.7308605,1.7308605 0 0 0 2.36413041,0.63375 1.7308605,1.7308605 0 0 0 0.8601896,-1.38878 c 0.6937868,0.84505 1.6092872,1.53831 2.7052019,2.10764 z"
       id="path4775"
       inkscape:connector-curvature="0"
       inkscape:export-xdpi="131.91"
       inkscape:export-ydpi="131.91" />
  </g>
</svg>
